<mxfile host="app.diagrams.net" agent="Mozilla/5.0 (Windows NT 10.0; Win64; x64) AppleWebKit/537.36 (KHTML, like Gecko) Chrome/136.0.0.0 Safari/537.36" version="27.1.0">
  <diagram name="Page-1" id="qkCIYp7tepH9z38NQo15">
    <mxGraphModel grid="1" page="1" gridSize="10" guides="1" tooltips="1" connect="1" arrows="1" fold="1" pageScale="1" pageWidth="827" pageHeight="1169" math="0" shadow="0">
      <root>
        <mxCell id="0" />
        <mxCell id="1" parent="0" />
        <mxCell id="3m9GE0AvMXXOzS-gHbMh-1" value="" style="rounded=1;whiteSpace=wrap;html=1;labelBackgroundColor=none;fillColor=#cce5ff;strokeColor=#36393d;" vertex="1" parent="1">
          <mxGeometry x="1000" y="300" width="210" height="400" as="geometry" />
        </mxCell>
        <mxCell id="3m9GE0AvMXXOzS-gHbMh-2" value="&lt;font style=&quot;font-size: 16px;&quot;&gt;Sign In&lt;/font&gt;" style="ellipse;whiteSpace=wrap;html=1;labelBackgroundColor=none;rounded=1;fillColor=#cce5ff;strokeColor=#36393d;" vertex="1" parent="1">
          <mxGeometry x="1022.5" y="360" width="167.5" height="50" as="geometry" />
        </mxCell>
        <mxCell id="3m9GE0AvMXXOzS-gHbMh-3" value="&lt;font style=&quot;font-size: 16px;&quot;&gt;Sign Up&lt;/font&gt;" style="ellipse;whiteSpace=wrap;html=1;labelBackgroundColor=none;rounded=1;fillColor=#cce5ff;strokeColor=#36393d;" vertex="1" parent="1">
          <mxGeometry x="1022.5" y="430" width="167.5" height="50" as="geometry" />
        </mxCell>
        <mxCell id="3m9GE0AvMXXOzS-gHbMh-4" value="&lt;font style=&quot;font-size: 16px;&quot;&gt;Logout&lt;/font&gt;" style="ellipse;whiteSpace=wrap;html=1;labelBackgroundColor=none;rounded=1;fillColor=#cce5ff;strokeColor=#36393d;" vertex="1" parent="1">
          <mxGeometry x="1022.5" y="490" width="167.5" height="50" as="geometry" />
        </mxCell>
        <mxCell id="3m9GE0AvMXXOzS-gHbMh-5" value="&lt;font style=&quot;font-size: 16px;&quot;&gt;Forget Password&lt;/font&gt;" style="ellipse;whiteSpace=wrap;html=1;labelBackgroundColor=none;rounded=1;fillColor=#cce5ff;strokeColor=#36393d;" vertex="1" parent="1">
          <mxGeometry x="1022.5" y="560" width="167.5" height="50" as="geometry" />
        </mxCell>
        <mxCell id="3m9GE0AvMXXOzS-gHbMh-6" value="&lt;font style=&quot;font-size: 16px;&quot;&gt;Verification&lt;/font&gt;" style="ellipse;whiteSpace=wrap;html=1;labelBackgroundColor=none;rounded=1;fillColor=#cce5ff;strokeColor=#36393d;" vertex="1" parent="1">
          <mxGeometry x="1022.5" y="630" width="167.5" height="50" as="geometry" />
        </mxCell>
        <mxCell id="3m9GE0AvMXXOzS-gHbMh-7" value="&lt;b&gt;&lt;span style=&quot;font-size:12.0pt;line-height:107%;&lt;br/&gt;font-family:&amp;quot;Times New Roman&amp;quot;,serif;mso-fareast-font-family:&amp;quot;Times New Roman&amp;quot;;&lt;br/&gt;color:#262626;mso-ansi-language:EN-US;mso-fareast-language:EN-US;mso-bidi-language:&lt;br/&gt;AR-SA&quot;&gt;Registration and Login&lt;/span&gt;&lt;/b&gt;" style="text;html=1;align=center;verticalAlign=middle;whiteSpace=wrap;rounded=0;" vertex="1" parent="1">
          <mxGeometry x="1016.88" y="310" width="178.75" height="30" as="geometry" />
        </mxCell>
        <mxCell id="3m9GE0AvMXXOzS-gHbMh-41" value="" style="shape=umlActor;verticalLabelPosition=bottom;verticalAlign=top;html=1;outlineConnect=0;fillColor=none;strokeColor=#10739e;" vertex="1" parent="1">
          <mxGeometry x="267.5" y="1020" width="120" height="210" as="geometry" />
        </mxCell>
        <mxCell id="3m9GE0AvMXXOzS-gHbMh-42" value="" style="endArrow=none;html=1;rounded=0;entryX=0.076;entryY=0.981;entryDx=0;entryDy=0;entryPerimeter=0;" edge="1" parent="1" source="3m9GE0AvMXXOzS-gHbMh-41" target="3m9GE0AvMXXOzS-gHbMh-1">
          <mxGeometry width="50" height="50" relative="1" as="geometry">
            <mxPoint x="457.5" y="1110" as="sourcePoint" />
            <mxPoint x="497.5" y="1060" as="targetPoint" />
          </mxGeometry>
        </mxCell>
        <mxCell id="3m9GE0AvMXXOzS-gHbMh-48" value="&lt;span style=&quot;font-size: 19px;&quot;&gt;&lt;b&gt;Admin&lt;/b&gt;&lt;/span&gt;" style="text;html=1;align=center;verticalAlign=middle;whiteSpace=wrap;rounded=0;" vertex="1" parent="1">
          <mxGeometry x="250" y="1202.5" width="155" height="145" as="geometry" />
        </mxCell>
        <mxCell id="3m9GE0AvMXXOzS-gHbMh-49" value="" style="rounded=1;whiteSpace=wrap;html=1;labelBackgroundColor=none;fillColor=#ffe6cc;strokeColor=#d79b00;" vertex="1" parent="1">
          <mxGeometry x="1270" y="585" width="254.5" height="290" as="geometry" />
        </mxCell>
        <mxCell id="3m9GE0AvMXXOzS-gHbMh-50" value="&lt;p style=&quot;margin-bottom:0in;mso-add-space:auto;&lt;br/&gt;text-align:justify;text-indent:-.25in;line-height:115%;mso-list:l0 level1 lfo1;&lt;br/&gt;background:white&quot; class=&quot;MsoListParagraph&quot;&gt;&lt;font face=&quot;Times New Roman, serif&quot;&gt;&lt;span style=&quot;font-size: 16px;&quot;&gt;&lt;b&gt;Communication &amp;amp; Notification System&lt;/b&gt;&lt;/span&gt;&lt;/font&gt;&lt;/p&gt;" style="text;html=1;align=center;verticalAlign=middle;whiteSpace=wrap;rounded=0;fillColor=none;strokeColor=none;" vertex="1" parent="1">
          <mxGeometry x="1296.5" y="595" width="210" height="30" as="geometry" />
        </mxCell>
        <mxCell id="3m9GE0AvMXXOzS-gHbMh-51" value="&lt;span style=&quot;font-size: 16px;&quot;&gt;Push Notification&lt;/span&gt;" style="ellipse;whiteSpace=wrap;html=1;labelBackgroundColor=none;rounded=1;fillColor=#ffcccc;strokeColor=#36393d;" vertex="1" parent="1">
          <mxGeometry x="1307.5" y="645" width="167.5" height="50" as="geometry" />
        </mxCell>
        <mxCell id="3m9GE0AvMXXOzS-gHbMh-52" value="&lt;span style=&quot;font-size: 16px;&quot;&gt;Email&lt;/span&gt;" style="ellipse;whiteSpace=wrap;html=1;labelBackgroundColor=none;rounded=1;fillColor=#ffcccc;strokeColor=#36393d;" vertex="1" parent="1">
          <mxGeometry x="1306.25" y="705" width="167.5" height="50" as="geometry" />
        </mxCell>
        <mxCell id="3m9GE0AvMXXOzS-gHbMh-53" value="&lt;span style=&quot;font-size: 16px;&quot;&gt;SMS&lt;/span&gt;" style="ellipse;whiteSpace=wrap;html=1;labelBackgroundColor=none;rounded=1;fillColor=#ffcccc;strokeColor=#36393d;" vertex="1" parent="1">
          <mxGeometry x="1305.25" y="767" width="167.5" height="58" as="geometry" />
        </mxCell>
        <mxCell id="3m9GE0AvMXXOzS-gHbMh-54" value="" style="rounded=1;whiteSpace=wrap;html=1;labelBackgroundColor=none;fillColor=#d5e8d4;strokeColor=#82b366;" vertex="1" parent="1">
          <mxGeometry x="1410" y="917.5" width="280" height="285" as="geometry" />
        </mxCell>
        <mxCell id="3m9GE0AvMXXOzS-gHbMh-55" value="&lt;p style=&quot;margin-bottom:0in;mso-add-space:auto;&lt;br/&gt;text-align:justify;text-indent:-.25in;line-height:115%;mso-list:l0 level1 lfo1;&lt;br/&gt;background:white&quot; class=&quot;MsoListParagraph&quot;&gt;&lt;font face=&quot;Times New Roman, serif&quot;&gt;&lt;span style=&quot;font-size: 16px;&quot;&gt;&lt;b&gt;Help &amp;amp; Support Center(Automated)&lt;/b&gt;&lt;/span&gt;&lt;/font&gt;&lt;/p&gt;" style="text;html=1;align=center;verticalAlign=middle;whiteSpace=wrap;rounded=0;fillColor=none;strokeColor=none;" vertex="1" parent="1">
          <mxGeometry x="1410.1399999999999" y="937.5" width="304.36" height="30" as="geometry" />
        </mxCell>
        <mxCell id="3m9GE0AvMXXOzS-gHbMh-56" value="&lt;span style=&quot;font-size: 16px;&quot;&gt;FAQ&lt;/span&gt;" style="ellipse;whiteSpace=wrap;html=1;labelBackgroundColor=none;rounded=1;fillColor=none;strokeColor=#36393d;" vertex="1" parent="1">
          <mxGeometry x="1465.75" y="991.5" width="167.5" height="50" as="geometry" />
        </mxCell>
        <mxCell id="3m9GE0AvMXXOzS-gHbMh-57" value="&lt;span style=&quot;font-size: 16px;&quot;&gt;Hotline&lt;/span&gt;" style="ellipse;whiteSpace=wrap;html=1;labelBackgroundColor=none;rounded=1;fillColor=none;strokeColor=#36393d;" vertex="1" parent="1">
          <mxGeometry x="1465.75" y="1057.5" width="167.5" height="50" as="geometry" />
        </mxCell>
        <mxCell id="3m9GE0AvMXXOzS-gHbMh-58" value="&lt;span style=&quot;font-size: 16px;&quot;&gt;Live Chat&lt;/span&gt;" style="ellipse;whiteSpace=wrap;html=1;labelBackgroundColor=none;rounded=1;fillColor=none;strokeColor=#36393d;" vertex="1" parent="1">
          <mxGeometry x="1465.75" y="1120.5" width="167.5" height="50" as="geometry" />
        </mxCell>
        <mxCell id="3m9GE0AvMXXOzS-gHbMh-66" value="" style="rounded=1;whiteSpace=wrap;html=1;labelBackgroundColor=none;fillColor=#e6d0de;strokeColor=#996185;gradientColor=#d5739d;" vertex="1" parent="1">
          <mxGeometry x="1090" y="1130" width="254.75" height="332" as="geometry" />
        </mxCell>
        <mxCell id="3m9GE0AvMXXOzS-gHbMh-67" value="&lt;p style=&quot;margin-bottom:0in;mso-add-space:auto;&lt;br/&gt;text-align:justify;text-indent:-.25in;line-height:115%;mso-list:l0 level1 lfo1;&lt;br/&gt;background:white&quot; class=&quot;MsoListParagraph&quot;&gt;&lt;font face=&quot;Times New Roman, serif&quot;&gt;&lt;span style=&quot;font-size: 16px;&quot;&gt;&lt;b&gt;Reporting&lt;/b&gt;&lt;/span&gt;&lt;/font&gt;&lt;/p&gt;" style="text;html=1;align=center;verticalAlign=middle;whiteSpace=wrap;rounded=0;fillColor=none;strokeColor=none;" vertex="1" parent="1">
          <mxGeometry x="1119.13" y="1140" width="210" height="30" as="geometry" />
        </mxCell>
        <mxCell id="3m9GE0AvMXXOzS-gHbMh-68" value="&lt;span style=&quot;font-size: 16px;&quot;&gt;Alumni Participation&lt;/span&gt;" style="ellipse;whiteSpace=wrap;html=1;labelBackgroundColor=none;rounded=1;fillColor=#ffcccc;strokeColor=#36393d;" vertex="1" parent="1">
          <mxGeometry x="1127.25" y="1180" width="167.5" height="50" as="geometry" />
        </mxCell>
        <mxCell id="3m9GE0AvMXXOzS-gHbMh-69" value="&lt;span style=&quot;font-size: 16px;&quot;&gt;Event Registrations&lt;/span&gt;" style="ellipse;whiteSpace=wrap;html=1;labelBackgroundColor=none;rounded=1;fillColor=#ffcccc;strokeColor=#36393d;" vertex="1" parent="1">
          <mxGeometry x="1128.5" y="1240" width="167.5" height="50" as="geometry" />
        </mxCell>
        <mxCell id="3m9GE0AvMXXOzS-gHbMh-70" value="&lt;span style=&quot;font-size: 16px;&quot;&gt;Donations Received&lt;/span&gt;" style="ellipse;whiteSpace=wrap;html=1;labelBackgroundColor=none;rounded=1;fillColor=#ffcccc;strokeColor=#36393d;" vertex="1" parent="1">
          <mxGeometry x="1127.25" y="1304" width="167.5" height="50" as="geometry" />
        </mxCell>
        <mxCell id="3m9GE0AvMXXOzS-gHbMh-71" value="&lt;span style=&quot;font-size: 16px;&quot;&gt;Engagement Metrics&lt;/span&gt;" style="ellipse;whiteSpace=wrap;html=1;labelBackgroundColor=none;rounded=1;fillColor=#ffcccc;strokeColor=#36393d;" vertex="1" parent="1">
          <mxGeometry x="1128.5" y="1371" width="167.5" height="50" as="geometry" />
        </mxCell>
        <mxCell id="3m9GE0AvMXXOzS-gHbMh-72" value="" style="rounded=1;whiteSpace=wrap;html=1;labelBackgroundColor=none;fillColor=#F9FFE4;strokeColor=#432D57;fontColor=#ffffff;fillStyle=auto;" vertex="1" parent="1">
          <mxGeometry x="712.49" y="440" width="180" height="210" as="geometry" />
        </mxCell>
        <mxCell id="3m9GE0AvMXXOzS-gHbMh-73" value="&lt;p style=&quot;margin-bottom:0in;mso-add-space:auto;&lt;br/&gt;text-align:justify;text-indent:-.25in;line-height:115%;mso-list:l0 level1 lfo1;&lt;br/&gt;background:white&quot; class=&quot;MsoListParagraph&quot;&gt;&lt;font face=&quot;Times New Roman, serif&quot;&gt;&lt;span style=&quot;font-size: 16px;&quot;&gt;&lt;b&gt;Security &amp;amp; Privacy&lt;/b&gt;&lt;/span&gt;&lt;/font&gt;&lt;/p&gt;" style="text;html=1;align=center;verticalAlign=middle;whiteSpace=wrap;rounded=0;fillColor=none;strokeColor=none;" vertex="1" parent="1">
          <mxGeometry x="710" y="440" width="210" height="30" as="geometry" />
        </mxCell>
        <mxCell id="3m9GE0AvMXXOzS-gHbMh-74" value="&lt;div&gt;&lt;span style=&quot;font-size: 16px;&quot;&gt;Strong&lt;/span&gt;&lt;/div&gt;&lt;div&gt;&lt;span style=&quot;font-size: 16px;&quot;&gt;Authentication&lt;/span&gt;&lt;/div&gt;" style="ellipse;whiteSpace=wrap;html=1;labelBackgroundColor=none;rounded=1;fillColor=#FFFFFF;strokeColor=#36393d;" vertex="1" parent="1">
          <mxGeometry x="718.7400000000001" y="490" width="167.5" height="50" as="geometry" />
        </mxCell>
        <mxCell id="3m9GE0AvMXXOzS-gHbMh-75" value="&lt;span style=&quot;font-size: 16px;&quot;&gt;Regular Security Audits.&lt;/span&gt;" style="ellipse;whiteSpace=wrap;html=1;labelBackgroundColor=none;rounded=1;fillColor=#FFFFFF;strokeColor=#36393d;" vertex="1" parent="1">
          <mxGeometry x="718.7400000000001" y="565" width="167.5" height="50" as="geometry" />
        </mxCell>
        <mxCell id="3m9GE0AvMXXOzS-gHbMh-76" value="" style="endArrow=none;html=1;rounded=0;entryX=0;entryY=0.5;entryDx=0;entryDy=0;" edge="1" parent="1" source="3m9GE0AvMXXOzS-gHbMh-41" target="3m9GE0AvMXXOzS-gHbMh-49">
          <mxGeometry width="50" height="50" relative="1" as="geometry">
            <mxPoint x="700" y="1121" as="sourcePoint" />
            <mxPoint x="750" y="1071" as="targetPoint" />
          </mxGeometry>
        </mxCell>
        <mxCell id="3m9GE0AvMXXOzS-gHbMh-77" value="" style="endArrow=none;html=1;rounded=0;entryX=0.014;entryY=0.31;entryDx=0;entryDy=0;entryPerimeter=0;" edge="1" parent="1" source="3m9GE0AvMXXOzS-gHbMh-41" target="3m9GE0AvMXXOzS-gHbMh-54">
          <mxGeometry width="50" height="50" relative="1" as="geometry">
            <mxPoint x="757.5" y="1150" as="sourcePoint" />
            <mxPoint x="1197.5" y="1090" as="targetPoint" />
          </mxGeometry>
        </mxCell>
        <mxCell id="3m9GE0AvMXXOzS-gHbMh-79" value="" style="endArrow=none;html=1;rounded=0;entryX=0;entryY=0.25;entryDx=0;entryDy=0;" edge="1" parent="1" source="3m9GE0AvMXXOzS-gHbMh-41" target="3m9GE0AvMXXOzS-gHbMh-66">
          <mxGeometry width="50" height="50" relative="1" as="geometry">
            <mxPoint x="467.5" y="1210" as="sourcePoint" />
            <mxPoint x="717.5" y="1430" as="targetPoint" />
          </mxGeometry>
        </mxCell>
        <mxCell id="3m9GE0AvMXXOzS-gHbMh-80" value="" style="endArrow=none;html=1;rounded=0;entryX=0.39;entryY=1.012;entryDx=0;entryDy=0;entryPerimeter=0;" edge="1" parent="1" source="3m9GE0AvMXXOzS-gHbMh-41" target="3m9GE0AvMXXOzS-gHbMh-72">
          <mxGeometry width="50" height="50" relative="1" as="geometry">
            <mxPoint x="417.5" y="980" as="sourcePoint" />
            <mxPoint x="467.5" y="930" as="targetPoint" />
          </mxGeometry>
        </mxCell>
      </root>
    </mxGraphModel>
  </diagram>
</mxfile>
